<?xml version="1.0" standalone="no"?>
<!DOCTYPE svg PUBLIC "-//W3C//DTD SVG 20010904//EN"
 "http://www.w3.org/TR/2001/REC-SVG-20010904/DTD/svg10.dtd">
<svg version="1.0" xmlns="http://www.w3.org/2000/svg"
 width="1350.000000pt" height="1398.000000pt" viewBox="0 0 1350.000000 1398.000000"
 preserveAspectRatio="xMidYMid meet">
<metadata>
Created by potrace 1.10, written by Peter Selinger 2001-2011
</metadata>
<g transform="translate(0.000000,1398.000000) scale(0.100000,-0.100000)"
fill="#000000" stroke="none">
<path d="M6375 11119 c-189 -18 -442 -63 -625 -113 -150 -40 -235 -69 -337
-112 -17 -8 -36 -14 -42 -14 -6 0 -19 -4 -29 -10 -9 -5 -39 -19 -67 -31 -66
-28 -223 -106 -310 -154 -84 -46 -303 -185 -331 -210 -6 -5 -22 -17 -34 -25
-136 -91 -432 -365 -563 -520 -40 -47 -75 -87 -78 -90 -6 -6 -157 -207 -177
-236 -144 -216 -241 -385 -302 -529 -12 -27 -25 -59 -30 -70 -5 -11 -18 -42
-30 -70 -12 -27 -25 -59 -30 -70 -19 -44 -99 -293 -105 -330 -4 -22 -10 -44
-14 -50 -6 -10 -20 -73 -46 -205 -21 -105 -44 -267 -55 -385 -12 -136 -13
-5105 0 -5125 8 -13 154 -15 1199 -18 1188 -2 1190 -2 1201 18 6 11 8 25 5 30
-4 7 -427 10 -1186 10 l-1179 0 0 2448 c0 1576 3 2483 10 2547 25 250 31 295
44 375 24 140 59 292 90 395 8 28 20 68 26 90 6 22 15 49 19 60 5 11 19 49 32
85 12 36 25 70 29 75 4 6 15 33 25 60 53 149 181 384 337 619 25 38 155 211
169 226 8 8 32 38 53 65 61 78 281 299 381 383 50 42 92 79 95 82 25 30 359
260 379 260 6 0 11 5 11 10 0 6 5 10 11 10 6 0 37 15 68 34 67 40 197 107 266
136 28 12 59 25 70 30 88 39 116 50 129 50 8 0 17 4 21 9 3 5 20 13 37 17 18
3 39 10 48 15 8 4 49 17 90 29 41 11 89 25 106 30 16 6 50 14 75 19 24 5 64
15 89 21 196 47 437 78 695 86 170 6 226 3 485 -26 142 -16 349 -53 425 -76
27 -8 68 -20 90 -26 79 -21 170 -50 187 -59 10 -5 23 -9 29 -9 6 0 25 -6 42
-14 18 -8 73 -31 122 -51 149 -63 510 -255 535 -285 3 -3 23 -17 45 -30 22
-13 45 -28 50 -32 6 -5 42 -32 80 -60 39 -29 75 -57 81 -63 7 -5 48 -39 92
-75 117 -94 363 -345 467 -475 22 -27 48 -58 57 -69 10 -11 30 -38 45 -60 15
-23 30 -43 33 -46 13 -11 160 -240 190 -295 53 -96 144 -276 165 -325 10 -25
26 -63 35 -85 10 -22 32 -80 50 -130 18 -49 36 -99 40 -110 14 -32 60 -199 85
-305 41 -171 63 -334 75 -550 6 -110 9 -1078 8 -2590 l-3 -2415 -1145 -2
c-630 -2 -1151 -3 -1158 -3 -9 0 -12 -10 -10 -27 l3 -28 1155 -1 c635 0 1165
3 1178 8 l22 8 -1 2617 c0 1440 -4 2641 -9 2668 -5 28 -13 84 -19 125 -6 41
-15 91 -20 110 -6 19 -17 69 -26 110 -26 121 -135 468 -155 495 -4 6 -11 21
-15 35 -35 114 -224 468 -331 622 -82 117 -129 184 -139 195 -5 7 -15 18 -20
25 -112 141 -142 175 -295 328 -174 175 -321 299 -484 410 -37 25 -72 50 -79
56 -48 41 -375 220 -502 274 -27 12 -59 25 -70 30 -74 33 -119 51 -185 73
-125 41 -212 67 -230 67 -9 0 -20 3 -24 8 -4 4 -35 13 -69 20 -34 7 -93 19
-132 27 -103 22 -266 45 -385 55 -126 10 -493 10 -605 -1z"/>
<path d="M6425 10789 c-180 -15 -417 -58 -625 -113 -83 -21 -304 -97 -315
-107 -5 -5 -14 -9 -21 -9 -25 0 -268 -117 -370 -177 -39 -24 -75 -43 -78 -43
-4 0 -12 -5 -19 -10 -7 -6 -46 -33 -87 -60 -208 -137 -337 -244 -535 -444
-284 -287 -466 -554 -663 -976 -34 -71 -92 -219 -92 -233 0 -5 -6 -23 -14 -40
-13 -29 -24 -65 -57 -182 -31 -114 -63 -281 -87 -455 -16 -115 -17 -319 -17
-2490 l0 -2365 1063 -3 c1133 -2 1062 -5 1066 41 1 9 -215 13 -1037 17 l-1037
5 0 2330 c1 1322 5 2360 10 2400 26 205 51 341 85 470 9 33 21 80 27 105 5 25
14 49 19 55 5 5 9 18 9 30 0 11 6 32 14 46 7 14 16 37 19 52 4 14 21 56 38 94
16 37 34 77 38 88 24 60 141 292 185 365 188 317 446 620 701 825 28 22 52 42
55 45 29 32 216 162 345 240 128 77 435 230 463 230 5 0 23 7 38 15 16 8 37
15 46 15 9 0 19 4 22 9 4 5 24 12 46 16 22 4 42 10 45 15 3 5 24 11 47 15 23
4 49 11 58 16 34 19 340 80 495 98 149 19 301 31 374 31 103 0 374 -26 531
-50 163 -25 466 -106 532 -141 10 -5 23 -9 28 -9 6 0 32 -9 58 -21 26 -11 56
-24 67 -28 112 -47 437 -218 455 -241 3 -3 23 -17 45 -30 40 -24 247 -176 301
-222 168 -141 402 -389 525 -558 138 -189 269 -413 348 -595 12 -27 26 -59 31
-70 38 -84 50 -115 50 -125 0 -5 4 -18 9 -28 12 -21 44 -117 66 -197 9 -33 21
-71 25 -85 9 -24 16 -56 46 -210 8 -41 21 -129 29 -194 8 -66 17 -126 20 -133
2 -8 5 -1061 5 -2341 l1 -2327 -1021 -3 -1020 -2 0 -30 0 -30 1039 0 c877 0
1040 2 1050 14 16 19 9 4720 -7 4816 -6 36 -18 106 -26 155 -19 111 -42 227
-56 280 -32 120 -63 218 -81 260 -5 11 -16 43 -25 70 -9 28 -25 70 -36 95 -10
25 -23 54 -27 65 -63 149 -239 461 -333 590 -61 83 -132 173 -176 225 -109
128 -376 384 -487 468 -5 4 -41 31 -80 60 -38 28 -74 55 -80 60 -5 4 -28 19
-50 32 -22 13 -42 27 -45 30 -9 12 -128 80 -138 80 -6 0 -12 4 -14 8 -1 4 -34
24 -73 43 -38 20 -79 41 -90 47 -11 6 -56 27 -100 47 -44 20 -88 40 -97 46
-10 5 -23 9 -29 9 -6 0 -25 6 -42 14 -67 30 -287 99 -372 117 -27 5 -81 17
-120 25 -265 55 -615 76 -890 53z"/>
<path d="M6271 9793 c-19 -8 -51 -36 -51 -45 0 -12 38 -9 46 3 8 14 123 5 156
-12 33 -17 78 -67 78 -88 0 -9 5 -22 11 -28 9 -9 7 -22 -5 -54 -21 -51 -12
-63 20 -26 53 62 20 151 -83 224 -40 28 -54 33 -102 32 -31 0 -62 -3 -70 -6z"/>
<path d="M6150 9706 c-48 -46 -60 -63 -60 -80 0 -7 -7 -16 -15 -20 -9 -3 -15
-18 -15 -34 0 -16 -6 -35 -14 -41 -25 -21 -38 -95 -32 -183 14 -202 23 -274
34 -295 9 -16 9 -29 2 -49 -12 -31 -6 -42 13 -25 17 13 14 119 -3 152 -7 12
-9 38 -6 63 4 23 9 97 11 164 4 103 7 126 25 150 15 20 21 44 21 85 1 53 3 57
24 57 26 0 65 43 65 71 0 27 -10 24 -50 -15z"/>
<path d="M6576 9374 c-9 -8 -16 -19 -16 -24 0 -15 21 -23 32 -12 22 22 78 -23
78 -63 0 -42 -39 -105 -84 -137 -26 -18 -46 -40 -46 -50 0 -17 2 -17 28 -4 15
9 51 39 80 69 77 77 83 141 21 205 -34 35 -69 41 -93 16z"/>
<path d="M5705 9363 c-39 -20 -56 -39 -82 -88 -53 -101 -62 -222 -29 -381 24
-113 19 -134 -38 -165 -65 -34 -78 -71 -53 -150 15 -50 108 -166 145 -181 49
-19 156 -72 214 -106 52 -31 71 -49 112 -107 12 -16 17 -17 27 -8 10 10 7 20
-13 50 -14 21 -29 48 -33 61 -3 12 -14 22 -24 22 -19 0 -54 34 -64 63 -4 10
-17 17 -34 17 -45 0 -97 23 -146 63 -25 20 -50 37 -56 37 -16 0 -38 40 -52 93
-10 41 -9 53 6 87 10 21 23 41 31 44 24 9 32 79 29 251 -2 146 0 175 15 205
11 22 16 48 12 69 -5 34 7 51 39 51 9 0 35 -18 57 -40 46 -47 59 -49 68 -15 9
36 34 32 34 -5 0 -16 5 -30 10 -30 15 0 12 49 -6 97 -13 33 -26 47 -58 63 -50
24 -71 25 -111 3z"/>
<path d="M5851 9154 l-20 -25 24 -45 c13 -24 26 -57 30 -74 8 -36 41 -80 61
-80 17 0 18 -5 -6 63 -11 31 -20 71 -20 88 0 26 -33 99 -45 99 -2 0 -13 -12
-24 -26z"/>
<path d="M7758 9141 c-21 -4 -46 -15 -56 -24 -10 -10 -25 -17 -33 -17 -8 0
-31 -21 -51 -46 -35 -43 -38 -52 -38 -108 0 -45 6 -73 23 -103 23 -43 142
-173 158 -173 20 0 7 32 -26 64 -19 19 -35 41 -35 49 0 9 -12 25 -27 37 -26
20 -35 43 -49 125 -6 34 28 105 50 105 7 0 21 9 31 20 14 15 31 20 72 20 30 0
53 -4 53 -11 0 -5 15 -16 33 -24 19 -8 39 -21 47 -29 7 -9 18 -16 26 -16 20 0
-4 59 -40 98 -34 36 -76 46 -138 33z"/>
<path d="M8134 9093 c-40 -50 -64 -91 -64 -108 0 -20 19 -19 27 0 3 9 19 31
36 50 24 28 38 35 67 35 41 0 52 -10 89 -79 21 -38 22 -47 11 -65 -9 -14 -10
-21 -1 -24 6 -2 11 -10 11 -19 0 -10 -8 -13 -27 -11 -23 2 -29 -1 -31 -20 -3
-20 0 -23 18 -17 31 10 50 -12 50 -56 0 -29 -4 -39 -16 -39 -32 0 -54 20 -54
50 0 35 -25 42 -35 10 -7 -23 2 -60 15 -60 14 0 80 -99 80 -120 0 -11 -12 -27
-27 -37 -16 -9 -39 -28 -53 -42 -14 -14 -40 -38 -59 -54 l-33 -28 11 -62 c7
-34 13 -84 15 -112 2 -27 9 -66 15 -85 6 -19 11 -55 12 -80 0 -40 2 -42 11
-22 7 14 20 22 36 22 39 0 125 75 149 128 12 29 18 33 39 28 15 -4 36 0 53 10
26 15 30 15 53 0 13 -9 27 -13 31 -10 3 3 23 -2 44 -11 40 -17 73 -61 73 -96
0 -10 4 -19 8 -19 16 0 3 -98 -19 -134 -11 -20 -25 -36 -29 -36 -5 0 -12 -9
-15 -21 -7 -22 -97 -119 -111 -119 -12 0 -44 -58 -44 -79 0 -26 -10 -31 -31
-18 -26 16 -29 8 -18 -43 8 -37 7 -45 -6 -53 -12 -6 -15 -16 -11 -33 5 -19 3
-24 -14 -24 -41 0 -21 -38 65 -125 36 -37 72 -65 84 -65 11 0 23 -4 26 -10 10
-17 25 -11 34 13 6 15 26 30 58 42 26 10 61 31 77 46 23 22 34 26 62 22 21 -3
42 0 56 9 21 13 116 15 193 4 32 -4 75 -25 75 -36 0 -5 11 -12 25 -16 14 -3
25 -10 25 -15 0 -4 10 -17 22 -28 l21 -20 -24 -10 c-22 -9 -23 -10 -3 -10 12
-1 27 -8 34 -17 8 -8 28 -21 47 -29 37 -16 39 -24 18 -65 -24 -47 -95 -50 -95
-4 0 8 -10 14 -25 14 -14 0 -25 -6 -25 -13 0 -18 40 -51 70 -57 19 -4 24 -11
23 -28 -2 -18 2 -22 26 -22 15 0 39 10 52 23 23 21 24 28 24 156 l0 135 -40
28 c-79 56 -125 70 -350 109 -65 11 -149 -3 -212 -36 -36 -18 -100 -77 -124
-114 -23 -36 -73 -33 -104 5 -29 35 -40 81 -31 140 9 69 31 102 125 194 151
147 181 199 181 314 0 90 -21 138 -83 191 -63 54 -111 75 -173 75 -93 0 -177
-60 -211 -149 -9 -25 -21 -52 -26 -58 -16 -21 -44 -15 -70 16 -22 27 -24 34
-16 83 9 54 27 94 84 182 17 26 40 63 53 82 12 19 22 45 22 57 0 12 7 40 15
62 9 27 14 82 14 165 1 105 -3 132 -20 170 -23 51 -56 90 -76 90 -7 0 -18 9
-25 20 -10 15 -24 20 -59 20 -40 0 -49 -4 -75 -37z"/>
<path d="M6789 9002 c-20 -10 -42 -24 -50 -30 -8 -7 -23 -19 -34 -27 -30 -20
-14 -27 20 -8 27 14 63 25 136 40 21 4 36 -3 67 -31 22 -20 44 -36 51 -36 22
0 71 -117 71 -168 0 -78 -11 -142 -25 -142 -7 0 -18 -13 -24 -30 -5 -16 -14
-30 -20 -30 -12 0 -41 -28 -41 -41 0 -23 37 -5 77 37 30 32 43 55 43 74 0 16
5 30 12 32 7 3 14 31 16 70 5 82 -15 149 -61 198 -29 32 -166 110 -192 110 -6
0 -27 -8 -46 -18z"/>
<path d="M6601 8834 c-20 -28 -31 -58 -31 -80 0 -48 13 -42 41 19 13 28 30 58
36 65 7 7 13 20 13 28 0 28 -29 13 -59 -32z"/>
<path d="M6363 8817 c-21 -23 -21 -23 -1 -36 24 -15 24 -15 33 27 8 38 -2 40
-32 9z"/>
<path d="M6337 8743 c-3 -5 -2 -23 0 -40 6 -37 27 -43 43 -14 13 25 13 27 -6
45 -17 17 -30 20 -37 9z"/>
<path d="M7581 8597 c-13 -6 -38 -29 -55 -51 -29 -36 -31 -43 -30 -121 1 -82
18 -135 45 -135 19 0 21 30 3 58 -41 62 4 184 73 198 17 3 41 3 52 -1 16 -5
21 -2 21 13 0 44 -59 65 -109 39z"/>
<path d="M6843 8444 c-27 -29 -31 -39 -22 -50 14 -18 29 -18 29 -1 0 7 20 28
45 47 25 19 45 35 45 37 0 2 -14 3 -31 3 -23 0 -41 -10 -66 -36z"/>
<path d="M7115 8435 c-33 -18 -105 -84 -105 -97 0 -9 -3 -13 -50 -69 -16 -20
-30 -40 -30 -44 0 -4 -13 -30 -30 -57 -16 -26 -30 -56 -30 -66 0 -10 -4 -22
-9 -27 -5 -6 -30 -50 -55 -98 -53 -101 -107 -171 -147 -187 -15 -7 -51 -10
-78 -8 -34 2 -51 -1 -51 -9 0 -19 67 -35 119 -28 42 6 56 14 111 69 49 49 69
79 95 141 18 44 38 81 44 83 6 2 11 13 11 24 0 12 7 26 15 32 12 8 13 18 6 42
-9 32 -2 57 15 53 25 -4 34 4 34 31 0 16 9 37 20 48 12 11 18 26 15 34 -4 10
4 19 27 28 18 8 51 28 73 46 49 39 89 52 102 31 18 -31 83 -50 83 -24 0 48
-126 83 -185 52z"/>
<path d="M6777 8316 c-37 -33 -50 -76 -23 -76 7 0 24 -8 37 -19 47 -36 62 0
36 87 l-13 42 -37 -34z"/>
<path d="M7307 8328 c-2 -7 2 -30 9 -52 16 -45 18 -122 4 -131 -5 -3 -10 -28
-10 -55 0 -46 -2 -51 -32 -66 -18 -9 -42 -24 -53 -34 -11 -10 -30 -21 -42 -24
-11 -4 -24 -18 -27 -32 -4 -13 -17 -29 -29 -34 -34 -14 -52 -32 -71 -68 -9
-18 -28 -38 -41 -44 -14 -6 -25 -17 -25 -25 0 -7 -7 -13 -15 -13 -8 0 -15 -9
-15 -20 0 -11 -7 -23 -15 -26 -12 -5 -14 -15 -9 -40 8 -44 -24 -114 -66 -144
-19 -14 -30 -30 -30 -45 0 -14 -8 -29 -19 -35 -11 -5 -29 -25 -40 -43 -22 -35
-57 -57 -94 -57 -12 0 -47 -13 -77 -30 -30 -16 -74 -38 -97 -49 -28 -14 -51
-36 -68 -65 -14 -24 -32 -50 -40 -56 -8 -7 -15 -25 -15 -41 0 -15 -4 -31 -10
-34 -19 -12 -10 -69 15 -93 13 -13 28 -23 32 -22 4 0 6 27 5 59 -4 67 3 86 62
149 57 63 99 86 194 110 133 34 179 78 246 234 9 20 16 42 16 49 0 7 15 44 34
83 40 84 109 162 226 257 145 117 160 140 160 248 0 102 -45 238 -63 189z"/>
<path d="M7540 8261 c0 -10 18 -45 40 -77 22 -33 40 -64 40 -71 0 -6 3 -13 8
-15 4 -1 21 -23 37 -47 17 -25 51 -67 78 -94 26 -28 47 -54 47 -58 0 -4 19
-35 43 -70 77 -112 107 -178 113 -250 9 -91 -2 -150 -36 -201 -34 -50 -35 -54
-14 -62 26 -10 64 4 64 24 0 11 5 22 10 25 6 3 10 17 10 30 0 13 11 31 25 42
37 26 45 86 16 117 -15 16 -22 37 -23 67 -1 60 -7 79 -24 79 -17 0 -63 49 -64
68 0 7 -4 20 -9 30 -5 9 -14 31 -21 47 -24 59 -39 80 -57 80 -28 0 -41 12 -48
45 -4 17 -10 30 -15 30 -16 0 -40 32 -40 54 0 14 -11 28 -30 39 -16 10 -35 27
-40 38 -6 10 -17 19 -25 19 -10 0 -15 11 -15 33 0 22 -9 43 -29 65 -34 37 -41
39 -41 13z"/>
<path d="M4385 8236 c-40 -43 -63 -138 -44 -180 20 -43 27 -35 58 63 11 35 38
71 52 71 17 0 69 -53 69 -70 0 -10 11 -31 24 -47 21 -26 23 -37 23 -137 l0
-109 -29 -11 c-33 -12 -34 -39 -1 -44 12 -2 25 -11 28 -21 7 -24 53 -66 62
-57 11 10 3 347 -8 368 -5 9 -9 27 -9 39 0 40 -41 110 -83 140 -56 41 -100 39
-142 -5z"/>
<path d="M5567 8242 c-19 -2 -37 -16 -57 -44 -27 -36 -30 -49 -30 -112 0 -86
27 -171 75 -236 18 -25 87 -97 152 -160 134 -129 181 -201 207 -313 20 -86 20
-122 0 -200 -18 -71 -53 -127 -107 -171 -34 -27 -46 -31 -101 -31 -84 0 -130
25 -157 85 -11 25 -25 53 -30 62 -26 50 -3 135 64 225 20 28 44 70 52 94 14
39 14 47 0 84 -47 117 -184 163 -236 79 -12 -20 -29 -34 -40 -34 -10 0 -19 -4
-19 -10 0 -15 34 -12 66 5 39 20 84 18 112 -4 24 -21 29 -47 10 -54 -7 -3 -3
-6 10 -6 14 -1 22 -7 22 -18 0 -32 -27 -107 -39 -111 -27 -9 -62 -83 -63 -132
0 -32 -5 -50 -14 -54 -19 -7 -18 -60 2 -77 9 -7 27 -37 41 -66 26 -54 61 -87
125 -117 32 -14 46 -15 90 -6 29 7 67 11 83 11 21 0 42 10 67 32 55 49 118
138 118 167 0 15 6 35 14 45 10 14 12 36 9 72 -4 32 -1 58 5 66 9 10 6 27 -8
65 -11 29 -20 61 -20 72 0 11 -9 29 -20 40 -11 11 -20 28 -20 38 0 11 -30 50
-66 88 -36 38 -71 83 -79 99 -17 39 -43 62 -78 70 -16 4 -32 17 -37 29 -5 11
-22 34 -39 49 -18 17 -31 39 -31 52 0 16 -9 28 -27 37 -54 26 -50 146 6 202
28 27 32 29 48 14 10 -8 32 -19 48 -22 41 -10 74 -43 68 -67 -3 -12 3 -26 18
-39 25 -22 113 -70 126 -70 17 0 133 116 133 132 0 33 -17 26 -38 -16 -12 -23
-33 -48 -46 -55 -38 -21 -95 18 -169 112 -57 74 -125 108 -200 99z"/>
<path d="M6690 8166 c0 -21 -44 -66 -63 -66 -33 0 -63 -24 -98 -78 -35 -55
-36 -59 -31 -134 4 -81 22 -99 22 -24 0 50 39 145 71 175 18 17 36 21 87 21
59 0 66 2 98 34 43 43 43 53 0 48 -27 -3 -37 1 -48 17 -15 24 -38 28 -38 7z"/>
<path d="M4051 8161 c-11 -7 -14 -32 -13 -113 3 -142 10 -178 39 -213 l25 -30
-6 30 c-18 91 -19 89 7 115 14 14 33 31 42 39 10 8 14 19 9 30 -3 9 -9 26 -11
39 -5 19 -1 22 27 22 17 0 43 -9 57 -20 37 -29 45 -25 23 14 -29 48 -50 64
-106 81 -57 17 -74 18 -93 6z"/>
<path d="M4980 8113 c-79 -27 -132 -75 -167 -152 -23 -50 -25 -64 -21 -160 4
-95 8 -113 38 -176 19 -39 37 -72 40 -75 3 -3 16 -22 29 -42 12 -21 27 -38 32
-38 14 0 11 38 -6 70 -9 18 -11 31 -5 35 17 10 11 25 -9 25 -43 0 -75 187 -54
313 4 28 12 41 29 47 13 5 26 21 30 35 7 29 67 65 107 65 34 0 86 -24 125 -59
24 -20 41 -52 63 -111 16 -46 33 -88 38 -94 5 -6 9 -42 9 -79 0 -46 5 -74 14
-85 8 -9 18 -25 21 -34 11 -31 27 -19 27 20 -1 62 -27 225 -44 267 -43 113
-98 185 -170 219 -33 15 -95 20 -126 9z"/>
<path d="M8066 8105 c4 -8 10 -15 15 -15 5 0 9 7 9 15 0 8 -7 15 -15 15 -9 0
-12 -6 -9 -15z"/>
<path d="M7482 7943 c-59 -20 -163 -120 -196 -186 -37 -73 -56 -143 -56 -205
0 -55 23 -142 47 -177 7 -11 13 -27 13 -36 0 -10 6 -30 14 -46 20 -38 43 -102
51 -138 7 -27 8 -28 15 -10 16 39 11 113 -11 155 -13 25 -19 49 -15 64 4 15 1
26 -6 28 -32 11 -51 194 -24 233 7 11 16 37 19 57 6 42 52 108 73 108 8 0 18
10 23 23 28 72 119 98 160 45 25 -31 26 -47 6 -74 -23 -30 -1 -175 24 -160 18
11 53 157 46 193 -11 59 -36 100 -75 122 -44 24 -50 25 -108 4z"/>
<path d="M4140 7721 c0 -11 5 -23 10 -26 6 -3 10 3 10 14 0 11 -4 23 -10 26
-5 3 -10 -3 -10 -14z"/>
<path d="M6022 7668 c-6 -6 -12 -19 -12 -27 0 -13 2 -13 16 1 9 9 15 21 13 27
-3 9 -8 8 -17 -1z"/>
<path d="M4170 7655 c0 -8 5 -15 10 -15 6 0 10 7 10 15 0 8 -4 15 -10 15 -5 0
-10 -7 -10 -15z"/>
<path d="M7681 7603 c-39 -4 -42 -6 -37 -26 3 -12 6 -25 6 -29 0 -5 8 -8 18
-8 11 0 29 -9 42 -20 12 -11 30 -22 39 -25 27 -9 71 -76 71 -107 0 -17 4 -27
10 -23 14 9 11 133 -4 174 -12 32 -66 74 -91 69 -5 -1 -30 -3 -54 -5z"/>
<path d="M4310 7530 c0 -5 11 -10 25 -10 14 0 25 5 25 10 0 6 -11 10 -25 10
-14 0 -25 -4 -25 -10z"/>
<path d="M4634 7473 c-1 -38 0 -39 87 -112 38 -32 69 -40 69 -18 0 6 -15 23
-34 37 -18 13 -50 48 -71 77 -21 29 -41 53 -44 53 -3 0 -6 -17 -7 -37z"/>
<path d="M4147 7493 c-10 -18 -27 -120 -28 -173 -1 -48 18 -112 48 -158 86
-129 241 -215 356 -198 23 3 80 12 127 19 l85 13 -39 17 c-22 10 -48 15 -58
11 -10 -3 -25 0 -33 6 -10 8 -29 8 -70 1 -52 -10 -60 -9 -98 13 -23 13 -54 27
-69 30 -16 4 -28 13 -28 21 0 9 -11 20 -25 25 -15 6 -25 17 -25 30 0 11 -4 20
-10 20 -5 0 -10 4 -10 10 0 5 -25 35 -56 66 l-55 56 6 57 c3 31 8 75 11 99 4
33 2 42 -10 42 -8 0 -17 -3 -19 -7z"/>
<path d="M4931 7361 c-10 -7 -10 -10 -1 -16 6 -4 16 -3 22 3 13 13 -4 23 -21
13z"/>
<path d="M7067 7345 c-22 -15 -39 -37 -43 -53 -3 -15 -12 -46 -21 -70 -15 -43
-14 -81 7 -182 5 -25 14 -79 21 -120 6 -41 15 -88 21 -105 51 -159 59 -239 28
-302 -23 -49 -39 -57 -105 -54 -56 3 -110 -25 -132 -69 -16 -32 -16 -107 -1
-181 10 -51 9 -63 -12 -120 -12 -35 -33 -75 -47 -88 -13 -13 -22 -29 -20 -35
6 -17 36 -19 43 -3 3 8 25 35 48 60 42 43 43 46 50 131 6 71 4 92 -8 112 -20
29 -20 50 -1 58 8 3 15 14 15 25 0 14 9 23 28 27 15 3 41 12 57 19 17 7 41 16
55 20 14 4 34 14 45 21 11 8 27 14 37 14 12 0 18 8 18 23 0 12 11 43 24 69 23
45 23 47 6 73 -14 22 -16 34 -8 56 7 21 6 35 -5 56 -17 33 -39 99 -43 128 -1
11 -14 40 -28 65 -19 33 -26 59 -26 98 0 33 -6 63 -17 79 -16 24 -16 27 0 55
9 16 17 38 17 49 0 28 36 59 68 59 31 0 50 -18 71 -65 7 -16 17 -37 22 -45 5
-8 12 -23 15 -32 10 -29 24 -21 24 13 0 69 -56 191 -102 223 -32 22 -58 20
-101 -9z"/>
<path d="M8950 7360 c0 -5 9 -10 20 -10 11 0 20 5 20 10 0 6 -9 10 -20 10 -11
0 -20 -4 -20 -10z"/>
<path d="M4787 7314 c-4 -4 -4 -11 -1 -15 8 -14 31 -10 38 6 5 15 -24 22 -37
9z"/>
<path d="M4438 7228 c9 -9 15 -9 24 0 9 9 7 12 -12 12 -19 0 -21 -3 -12 -12z"/>
<path d="M6745 7128 c-27 -17 -85 -64 -128 -104 -43 -41 -91 -77 -105 -80 -47
-10 -52 -13 -52 -29 0 -25 49 -39 70 -20 9 8 27 15 40 15 35 0 126 65 138 99
7 21 19 31 40 36 17 3 36 13 43 21 17 21 30 17 67 -17 35 -33 40 -50 17 -69
-11 -9 -12 -17 -4 -32 15 -28 -15 -212 -41 -253 -11 -16 -27 -45 -35 -62 -8
-18 -20 -33 -27 -33 -6 0 -20 -9 -32 -21 -12 -12 -46 -35 -76 -53 -37 -21 -56
-38 -58 -54 -2 -12 -8 -22 -13 -22 -6 0 -23 -28 -39 -62 -16 -35 -38 -71 -50
-81 -13 -11 -19 -25 -16 -34 4 -8 1 -43 -5 -78 -9 -55 -8 -72 11 -141 13 -44
33 -92 46 -107 29 -35 29 -42 5 -91 -24 -45 -78 -88 -102 -81 -11 4 -22 -1
-28 -14 -16 -29 -14 -31 27 -31 27 0 46 8 68 28 17 15 44 34 60 42 25 13 49
47 80 108 10 19 -4 42 -25 42 -29 0 -59 49 -78 128 -16 68 -16 74 2 149 22 89
68 168 125 213 21 16 42 30 47 30 4 0 39 27 76 61 116 104 149 186 146 359 -2
120 -22 219 -50 249 -29 31 -83 27 -144 -11z"/>
<path d="M8290 7126 c-5 -13 -14 -27 -19 -31 -6 -3 -11 -14 -11 -25 0 -10 -21
-33 -50 -54 -41 -30 -50 -41 -50 -67 0 -17 5 -39 10 -50 8 -14 7 -27 -4 -47
-8 -15 -17 -35 -20 -45 -8 -27 -54 -39 -118 -32 -66 7 -160 -16 -180 -44 -7
-9 -21 -20 -32 -24 -11 -5 -16 -13 -12 -23 3 -9 6 -42 6 -75 0 -40 4 -59 13
-59 6 0 19 -15 27 -33 11 -23 31 -40 72 -60 56 -27 58 -27 92 -10 41 19 66 7
66 -33 0 -28 21 -32 41 -8 22 27 112 13 155 -25 19 -17 39 -31 44 -31 5 0 12
-10 15 -23 3 -12 20 -31 36 -42 32 -21 79 -101 79 -135 0 -33 -62 -92 -121
-114 -32 -12 -80 -20 -119 -20 -60 -1 -69 2 -105 32 -22 17 -44 32 -50 32 -6
0 -16 9 -23 20 -7 11 -19 20 -27 20 -9 0 -25 16 -36 35 -18 31 -26 35 -61 35
-28 0 -49 7 -69 24 -21 18 -46 26 -95 32 -97 10 -159 -12 -231 -82 -63 -61
-69 -79 -80 -247 l-5 -78 53 -61 c41 -47 69 -68 124 -93 39 -18 77 -40 84 -49
7 -8 31 -24 54 -35 23 -11 47 -31 52 -43 6 -13 16 -22 23 -21 18 4 25 -42 12
-82 -29 -87 -155 -116 -465 -105 -49 1 -144 -5 -210 -13 -113 -15 -122 -15
-156 1 l-36 18 -26 -37 c-26 -36 -27 -37 -94 -35 -38 1 -78 7 -90 14 -28 15
-33 15 -33 -2 0 -8 -9 -18 -20 -21 -28 -9 -46 -45 -29 -56 16 -11 166 -1 191
12 9 5 43 9 75 9 32 0 90 8 128 16 55 13 123 16 310 15 133 0 265 4 295 10
121 22 136 26 160 40 76 44 110 86 110 138 0 77 -72 168 -177 223 -193 101
-228 123 -254 160 l-22 30 18 96 c33 177 62 208 196 205 60 -1 97 -6 120 -18
39 -20 103 -69 139 -106 34 -35 98 -83 139 -104 45 -23 192 -23 247 1 165 70
202 113 194 224 -4 67 -138 241 -228 299 -56 35 -89 39 -239 28 -97 -7 -117
-6 -148 9 -39 18 -65 64 -79 136 -6 32 -3 39 21 58 25 20 36 22 103 17 41 -3
89 -11 105 -18 24 -9 40 -8 80 3 93 27 144 129 95 191 -21 26 -24 44 -14 71 5
13 22 16 80 16 61 0 81 -4 112 -24 50 -32 102 -90 141 -156 64 -107 115 -142
208 -142 71 0 142 25 192 68 93 80 107 179 47 318 -17 39 -18 39 -37 19 -20
-19 -20 -21 -3 -73 13 -41 15 -56 5 -69 -6 -9 -21 -36 -32 -61 -30 -67 -33
-72 -63 -94 -39 -29 -142 -38 -170 -14 -12 9 -15 17 -8 18 23 0 12 20 -15 26
-35 8 -53 22 -53 41 0 30 -60 99 -98 113 -20 7 -55 28 -77 47 -31 26 -46 33
-67 29 -16 -3 -31 0 -38 9 -7 8 -19 15 -26 15 -23 0 -16 20 11 30 34 13 43 39
20 56 -30 22 -64 17 -75 -10z m-145 -675 c10 -17 -11 -21 -31 -6 -18 14 -18
14 3 15 12 0 24 -4 28 -9z"/>
<path d="M7370 7098 c0 -7 5 -20 10 -28 8 -12 10 -11 10 7 0 12 -4 25 -10 28
-5 3 -10 0 -10 -7z"/>
<path d="M8490 7095 c0 -8 2 -15 4 -15 2 0 11 -3 20 -6 23 -9 20 9 -4 24 -17
10 -20 10 -20 -3z"/>
<path d="M8803 7055 c-3 -9 -3 -19 1 -22 9 -10 58 16 51 27 -10 16 -45 12 -52
-5z"/>
<path d="M4740 6947 c0 -16 -69 -82 -135 -129 -150 -107 -173 -234 -63 -333
l50 -45 86 0 c80 0 92 3 160 37 52 26 99 61 158 119 63 61 95 84 128 94 63 17
79 5 100 -77 24 -94 54 -149 104 -191 77 -65 115 -75 308 -75 l172 -1 16 -27
c22 -37 20 -75 -5 -115 -35 -57 -112 -80 -174 -52 -20 9 -37 9 -78 -2 -65 -16
-94 -35 -113 -72 -26 -51 -11 -100 48 -153 63 -57 106 -69 243 -70 124 0 143
-7 192 -72 l28 -36 3 -184 c2 -160 5 -189 22 -222 20 -40 73 -87 125 -111 42
-19 333 -27 365 -10 22 12 22 13 -26 37 -38 19 -53 22 -67 14 -29 -18 -65 -2
-88 39 -20 36 -50 55 -63 42 -3 -3 -6 -19 -6 -35 0 -28 -1 -29 -36 -24 -42 7
-94 29 -94 39 0 5 -7 8 -16 8 -22 0 -58 85 -50 119 4 14 8 43 10 64 4 47 14
57 30 34 13 -16 42 -25 34 -9 -2 4 -10 20 -18 35 -11 23 -11 32 -2 48 14 21 5
45 -23 69 -18 15 -75 128 -75 148 0 7 -15 18 -32 27 -18 8 -40 19 -48 24 -22
13 -104 29 -189 36 -77 7 -144 33 -154 60 -17 42 31 75 108 75 30 0 63 4 73 9
9 6 29 12 44 15 17 4 41 24 63 53 31 41 35 52 35 107 -1 38 -6 68 -15 80 -8
11 -15 30 -15 43 0 20 -4 22 -25 17 -14 -3 -25 -2 -25 4 0 10 -101 34 -130 31
-8 -1 -49 -2 -91 -2 -68 1 -86 5 -153 37 -66 32 -78 42 -94 79 -10 23 -26 48
-35 56 -10 7 -17 24 -17 37 0 47 -17 73 -55 80 -19 3 -35 12 -35 19 0 8 -18
14 -47 17 -39 3 -59 -2 -108 -27 -69 -35 -108 -59 -148 -92 -23 -19 -41 -23
-93 -23 -52 0 -64 -3 -64 -16 0 -12 6 -15 21 -11 25 7 35 -14 19 -42 -12 -23
-49 -28 -68 -9 -10 10 -17 10 -33 0 -11 -7 -24 -10 -29 -7 -14 8 -13 48 1 62
16 16 3 31 -23 26 -16 -3 -31 4 -47 21 -20 22 -22 30 -14 63 9 41 39 63 84 63
18 0 32 9 44 28 10 15 26 34 37 42 22 18 39 130 19 130 -6 0 -11 -6 -11 -13z"/>
<path d="M6960 5505 c0 -14 5 -25 10 -25 6 0 10 11 10 25 0 14 -4 25 -10 25
-5 0 -10 -11 -10 -25z"/>
<path d="M6120 5506 c0 -15 57 -33 68 -21 9 9 -28 35 -50 35 -10 0 -18 -6 -18
-14z"/>
<path d="M6230 5425 c1 -26 2 -28 11 -12 8 14 8 22 0 30 -8 8 -11 3 -11 -18z"/>
<path d="M5448 4813 c-14 -2 -32 -11 -38 -19 -7 -8 -19 -14 -26 -14 -8 0 -14
-4 -14 -10 0 -5 9 -10 20 -10 11 0 29 -5 40 -12 16 -10 23 -9 45 12 24 23 33
25 112 23 67 -2 89 -6 95 -17 5 -9 18 -16 29 -16 11 0 22 -7 25 -15 4 -8 12
-15 18 -15 23 0 136 -142 136 -171 0 -5 7 -20 15 -33 9 -13 18 -48 22 -77 3
-30 10 -60 16 -66 6 -9 6 -22 -1 -40 -6 -16 -13 -46 -16 -68 -7 -48 -30 -96
-79 -161 -37 -51 -71 -84 -86 -84 -5 0 -14 -6 -20 -14 -11 -13 -42 -20 -143
-32 -40 -5 -49 -3 -59 15 -10 14 -17 17 -25 10 -14 -12 -59 12 -68 37 -3 8
-12 14 -19 14 -8 0 -20 7 -27 15 -15 18 -40 20 -40 3 0 -16 81 -88 98 -88 7 0
15 -7 18 -15 4 -8 13 -15 20 -15 8 0 26 -7 39 -16 26 -17 107 -16 177 4 38 10
97 52 153 107 67 68 123 236 111 331 -4 27 -9 70 -12 96 -3 26 -12 52 -20 59
-8 6 -14 17 -14 24 0 22 -33 78 -62 104 -16 14 -28 31 -28 37 0 12 -85 80
-130 104 -25 13 -206 22 -262 13z"/>
<path d="M8628 4799 c-120 -17 -208 -112 -208 -226 0 -103 58 -155 270 -244
75 -31 156 -83 175 -112 25 -39 29 -89 10 -128 -21 -41 -62 -79 -86 -79 -10 0
-21 -4 -24 -10 -10 -17 -97 -11 -155 10 -88 32 -129 70 -155 146 -13 38 -38
55 -56 37 -4 -4 -2 -42 5 -83 12 -74 13 -75 57 -99 80 -43 149 -60 236 -61 45
0 85 5 88 10 3 6 14 10 24 10 28 0 100 59 125 103 51 90 45 176 -18 240 -37
38 -63 54 -171 102 -193 87 -230 115 -240 180 -9 60 6 96 54 133 38 29 49 32
109 32 37 0 84 -5 105 -11 47 -13 106 -63 124 -106 10 -25 20 -33 38 -33 14 0
25 3 24 8 0 4 -6 36 -12 71 l-13 64 -64 22 c-76 26 -162 34 -242 24z"/>
<path d="M4740 4794 c-71 -14 -146 -58 -205 -120 -85 -89 -126 -190 -126 -309
-1 -200 106 -337 311 -400 122 -36 379 1 428 63 6 9 12 31 12 49 0 18 6 42 12
53 10 15 10 22 1 31 -19 19 -39 4 -63 -46 -32 -66 -98 -105 -209 -122 -49 -8
-174 25 -225 58 -52 35 -116 117 -140 179 -39 105 -35 275 10 362 23 44 101
128 119 128 3 0 27 10 53 21 41 19 59 21 142 16 127 -7 179 -34 242 -125 16
-23 33 -40 39 -37 14 9 11 119 -4 139 -26 36 -114 57 -247 61 -69 2 -136 1
-150 -1z"/>
<path d="M6020 4792 c-16 -6 -12 -26 9 -44 17 -14 20 -38 26 -214 4 -110 5
-268 2 -353 -6 -137 -9 -156 -26 -173 -36 -33 -18 -43 76 -43 51 0 88 5 90 11
2 6 -6 21 -17 34 -11 13 -23 33 -25 44 -3 12 -4 174 -3 361 l3 340 77 0 c156
-1 238 -86 209 -216 -15 -67 -63 -105 -146 -114 -35 -3 -67 -10 -70 -15 -8
-13 17 -28 58 -35 21 -4 50 -19 63 -34 23 -24 94 -160 94 -180 0 -5 6 -22 14
-38 7 -15 24 -50 38 -78 13 -28 38 -60 58 -73 31 -21 40 -22 124 -16 50 4 94
12 98 18 4 5 -1 22 -10 38 -13 23 -14 31 -3 55 31 66 41 91 61 143 12 30 26
58 32 61 6 4 45 5 87 2 42 -2 105 0 141 5 64 10 65 10 87 -16 13 -15 23 -32
23 -38 0 -6 12 -38 26 -70 38 -87 53 -134 43 -140 -5 -3 -9 -14 -9 -25 0 -17
7 -19 63 -19 34 0 72 -3 85 -6 18 -5 22 -2 22 14 0 12 -8 27 -17 34 -26 19
-61 72 -69 102 -3 14 -10 29 -15 32 -5 3 -9 12 -9 20 0 7 -13 42 -28 76 -16
35 -37 83 -47 108 -9 25 -23 57 -31 72 -8 14 -14 31 -14 37 0 6 -13 39 -28 73
-16 35 -37 83 -46 108 -10 25 -23 54 -29 65 -6 11 -13 34 -17 50 -5 24 -11 31
-36 33 -19 2 -40 -4 -54 -16 -19 -15 -21 -22 -11 -40 13 -25 15 -72 2 -72 -9
0 -31 -41 -70 -135 -12 -27 -26 -58 -31 -67 -6 -10 -10 -23 -10 -29 0 -6 -7
-27 -16 -47 -44 -101 -56 -128 -63 -142 -5 -9 -12 -30 -15 -48 -4 -17 -12 -34
-17 -37 -5 -4 -9 -13 -9 -22 0 -29 -44 -105 -73 -125 -25 -18 -30 -19 -45 -5
-22 20 -59 95 -112 227 -29 72 -64 117 -106 137 -39 19 -33 35 25 59 54 23 89
62 108 121 33 104 -13 185 -130 228 -43 16 -79 19 -214 20 -90 0 -167 -1 -173
-3z m1000 -172 c34 -65 131 -303 125 -308 -9 -9 -269 -2 -279 8 -4 4 -1 21 7
37 25 45 57 121 57 135 0 8 4 18 9 24 4 5 16 40 26 77 10 37 22 66 27 65 5 -2
18 -19 28 -38z"/>
<path d="M7483 4785 c-12 -9 -10 -15 11 -34 l26 -24 0 -346 c0 -341 0 -345
-22 -368 -15 -17 -19 -26 -11 -34 21 -21 440 -30 508 -11 27 8 31 13 36 63 9
75 -10 96 -42 46 -37 -56 -60 -64 -205 -71 -104 -5 -134 -3 -150 8 -18 14 -19
30 -22 313 -3 345 0 383 35 424 14 16 24 31 22 33 -10 10 -173 10 -186 1z"/>
<path d="M8120 4792 c-16 -6 -12 -26 9 -44 28 -24 33 -87 29 -421 -3 -276 -4
-300 -21 -312 -10 -7 -17 -21 -15 -31 2 -14 16 -17 88 -17 86 0 112 12 77 38
-33 24 -37 65 -37 368 0 305 6 368 37 385 8 5 14 15 11 23 -3 9 -27 13 -86 13
-45 1 -86 0 -92 -2z"/>
<path d="M5277 4705 c-33 -30 -38 -40 -32 -63 6 -26 37 -79 81 -142 l22 -31 6
37 c5 25 3 41 -7 53 -19 20 -47 88 -47 111 0 10 10 24 22 32 12 8 18 19 14 26
-11 18 -17 15 -59 -23z"/>
<path d="M5680 4690 c0 -5 9 -10 20 -10 11 0 20 5 20 10 0 6 -9 10 -20 10 -11
0 -20 -4 -20 -10z"/>
<path d="M5743 4523 c-22 -15 -32 -43 -15 -43 18 0 44 27 41 42 -4 14 -6 14
-26 1z"/>
<path d="M5457 4484 c-11 -12 3 -24 28 -24 13 0 26 4 29 9 10 15 -43 29 -57
15z"/>
<path d="M5355 4443 c4 -10 10 -28 12 -40 3 -12 12 -24 20 -28 22 -8 28 2 13
21 -11 12 -11 20 -2 34 13 22 6 30 -26 30 -19 0 -23 -4 -17 -17z"/>
<path d="M5562 4448 c3 -7 18 -16 36 -20 23 -6 31 -15 34 -35 4 -32 28 -44 28
-13 0 36 -40 80 -73 80 -18 0 -27 -5 -25 -12z"/>
<path d="M5660 4299 c0 -47 -4 -59 -30 -87 -32 -36 -38 -52 -17 -52 56 0 105
137 63 178 -15 15 -16 12 -16 -39z"/>
<path d="M5437 4313 c-8 -10 -16 -25 -18 -33 -4 -23 11 -80 22 -80 5 0 9 -6 9
-13 0 -23 59 -67 80 -59 27 10 25 26 -3 30 -28 3 -87 71 -87 99 0 10 7 30 14
46 17 30 7 36 -17 10z"/>
<path d="M5300 4288 c-24 -39 -24 -39 -5 -64 8 -10 15 -34 15 -53 0 -22 8 -44
22 -58 l21 -23 24 41 c13 23 23 43 23 45 0 2 -16 4 -35 4 -33 0 -35 2 -35 35
0 32 2 35 29 35 17 0 32 4 35 8 4 7 -56 62 -69 62 -3 0 -14 -15 -25 -32z"/>
<path d="M5803 4259 c14 -8 22 -8 30 0 8 8 3 11 -18 11 -26 -1 -28 -2 -12 -11z"/>
<path d="M5754 3157 c-2 -7 -3 -91 -2 -187 l3 -175 60 -3 c33 -2 80 0 104 3
90 13 132 101 76 158 l-26 25 22 37 c19 32 20 41 10 76 -10 33 -20 44 -54 60
-51 22 -185 27 -193 6z m178 -59 c46 -38 18 -87 -56 -95 -40 -5 -52 -3 -63 12
-14 20 -18 77 -6 88 11 12 109 7 125 -5z m10 -155 c25 -23 23 -68 -4 -87 -26
-19 -109 -21 -126 -4 -13 13 -17 90 -5 101 14 15 116 7 135 -10z"/>
<path d="M6160 3149 c0 -12 15 -47 34 -78 67 -112 78 -145 71 -204 -6 -43 -4
-57 10 -70 37 -38 60 -6 52 71 -4 39 -2 66 7 82 54 103 90 167 98 177 15 19 1
43 -24 43 -25 0 -42 -26 -77 -115 -28 -73 -39 -69 -82 30 -12 28 -28 58 -37
68 -22 24 -52 22 -52 -4z"/>
<path d="M6837 3164 c-4 -4 -7 -89 -7 -190 0 -147 3 -183 14 -187 31 -12 45
16 48 93 3 66 5 75 23 78 16 2 28 -14 59 -78 39 -80 64 -107 92 -96 23 9 17
27 -46 123 -33 50 -60 97 -60 104 0 7 25 38 55 70 62 65 69 89 28 89 -23 0
-38 -13 -83 -75 -30 -41 -59 -73 -65 -72 -5 2 -10 35 -10 73 0 62 -2 69 -20
72 -12 2 -24 0 -28 -4z"/>
<path d="M7245 3161 c-3 -6 -7 -86 -10 -179 -3 -133 -1 -174 10 -189 11 -15
16 -16 27 -5 9 10 13 47 13 130 0 65 4 118 9 120 6 2 20 -25 31 -60 12 -35 27
-76 33 -91 7 -16 12 -34 12 -42 0 -7 8 -23 19 -36 15 -19 23 -21 41 -13 17 7
31 37 60 124 20 63 43 116 49 118 9 3 12 -27 10 -115 -2 -141 6 -166 44 -128
12 11 14 45 10 187 -3 118 -8 175 -16 180 -18 12 -43 9 -54 -4 -10 -14 -73
-178 -73 -192 0 -19 -42 -97 -49 -90 -4 5 -15 34 -25 64 -10 30 -24 69 -32 87
-8 17 -14 36 -14 42 0 6 -4 19 -10 29 -5 9 -14 29 -20 45 -7 19 -16 27 -34 27
-14 0 -27 -4 -31 -9z"/>
</g>
</svg>
